<svg width="1484" height="50" viewBox="0 0 1484 50" fill="none" xmlns="http://www.w3.org/2000/svg">
<path d="M676.08 17.72C677.293 17.72 678.307 17.8333 679.12 18.06C679.947 18.2867 680.567 18.6667 680.98 19.2C681.407 19.72 681.62 20.4133 681.62 21.28C681.62 21.84 681.52 22.34 681.32 22.78C681.12 23.2067 680.827 23.5667 680.44 23.86C680.067 24.14 679.6 24.3267 679.04 24.42V24.52C679.613 24.6133 680.127 24.7867 680.58 25.04C681.033 25.28 681.393 25.6333 681.66 26.1C681.927 26.5667 682.06 27.1733 682.06 27.92C682.06 28.7867 681.853 29.5267 681.44 30.14C681.04 30.74 680.46 31.2 679.7 31.52C678.953 31.84 678.06 32 677.02 32H671.9V17.72H676.08ZM676.44 23.68C677.56 23.68 678.327 23.5 678.74 23.14C679.167 22.78 679.38 22.2467 679.38 21.54C679.38 20.82 679.127 20.3067 678.62 20C678.113 19.6933 677.307 19.54 676.2 19.54H674.06V23.68H676.44ZM674.06 25.44V30.2H676.68C677.84 30.2 678.647 29.9733 679.1 29.52C679.553 29.0667 679.78 28.4667 679.78 27.72C679.78 27.2667 679.68 26.8667 679.48 26.52C679.28 26.1733 678.94 25.9067 678.46 25.72C677.993 25.5333 677.353 25.44 676.54 25.44H674.06ZM688.965 21.02C690.325 21.02 691.338 21.32 692.005 21.92C692.672 22.5067 693.005 23.4333 693.005 24.7V32H691.505L691.085 30.5H691.005C690.698 30.8867 690.378 31.2067 690.045 31.46C689.725 31.7133 689.352 31.9 688.925 32.02C688.512 32.14 688.005 32.2 687.405 32.2C686.765 32.2 686.185 32.0867 685.665 31.86C685.158 31.62 684.758 31.26 684.465 30.78C684.172 30.2867 684.025 29.6733 684.025 28.94C684.025 27.8467 684.438 27.0133 685.265 26.44C686.105 25.8667 687.378 25.5533 689.085 25.5L690.925 25.44V24.84C690.925 24.04 690.745 23.48 690.385 23.16C690.025 22.84 689.518 22.68 688.865 22.68C688.305 22.68 687.772 22.76 687.265 22.92C686.758 23.08 686.278 23.2733 685.825 23.5L685.145 21.96C685.652 21.6933 686.232 21.4733 686.885 21.3C687.552 21.1133 688.245 21.02 688.965 21.02ZM689.465 26.86C688.238 26.9133 687.385 27.12 686.905 27.48C686.438 27.8267 686.205 28.32 686.205 28.96C686.205 29.52 686.372 29.9267 686.705 30.18C687.052 30.4333 687.485 30.56 688.005 30.56C688.845 30.56 689.538 30.3267 690.085 29.86C690.632 29.3933 690.905 28.6933 690.905 27.76V26.82L689.465 26.86ZM700.609 32.2C699.623 32.2 698.756 32.0067 698.009 31.62C697.263 31.2333 696.683 30.6333 696.269 29.82C695.856 28.9933 695.649 27.9467 695.649 26.68C695.649 25.3467 695.869 24.2667 696.309 23.44C696.763 22.6133 697.369 22.0067 698.129 21.62C698.903 21.22 699.783 21.02 700.769 21.02C701.369 21.02 701.929 21.0867 702.449 21.22C702.983 21.34 703.423 21.48 703.769 21.64L703.129 23.36C702.756 23.2133 702.356 23.0867 701.929 22.98C701.516 22.8733 701.123 22.82 700.749 22.82C700.083 22.82 699.529 22.9667 699.089 23.26C698.663 23.54 698.343 23.9667 698.129 24.54C697.929 25.1 697.829 25.8067 697.829 26.66C697.829 27.4733 697.936 28.16 698.149 28.72C698.363 29.28 698.676 29.7067 699.089 30C699.516 30.28 700.043 30.42 700.669 30.42C701.269 30.42 701.796 30.3533 702.249 30.22C702.703 30.0867 703.129 29.9133 703.529 29.7V31.54C703.143 31.7667 702.723 31.9333 702.269 32.04C701.816 32.1467 701.263 32.2 700.609 32.2ZM708.174 24.4C708.174 24.68 708.161 25 708.134 25.36C708.121 25.72 708.101 26.0533 708.074 26.36H708.134C708.241 26.2267 708.367 26.0667 708.514 25.88C708.674 25.68 708.834 25.48 708.994 25.28C709.154 25.08 709.301 24.9067 709.434 24.76L712.734 21.22H715.194L710.854 25.84L715.474 32H712.974L709.414 27.18L708.174 28.22V32H706.074V16.8H708.174V24.4ZM726.321 30.48C726.601 30.48 726.888 30.4533 727.181 30.4C727.475 30.3467 727.728 30.2867 727.941 30.22V31.82C727.715 31.9267 727.408 32.0133 727.021 32.08C726.635 32.16 726.248 32.2 725.861 32.2C725.275 32.2 724.735 32.1 724.241 31.9C723.761 31.7 723.375 31.3533 723.081 30.86C722.788 30.3667 722.641 29.68 722.641 28.8V22.84H721.141V21.88L722.721 21.08L723.461 18.8H724.761V21.22H727.841V22.84H724.761V28.76C724.761 29.3467 724.901 29.78 725.181 30.06C725.475 30.34 725.855 30.48 726.321 30.48ZM739.598 26.6C739.598 27.4933 739.478 28.2867 739.238 28.98C738.998 29.6733 738.658 30.26 738.218 30.74C737.778 31.22 737.244 31.5867 736.618 31.84C735.991 32.08 735.284 32.2 734.498 32.2C733.778 32.2 733.111 32.08 732.498 31.84C731.884 31.5867 731.351 31.22 730.898 30.74C730.458 30.26 730.111 29.6733 729.858 28.98C729.604 28.2867 729.478 27.4867 729.478 26.58C729.478 25.3933 729.678 24.3867 730.078 23.56C730.491 22.7333 731.078 22.1067 731.838 21.68C732.611 21.24 733.518 21.02 734.558 21.02C735.544 21.02 736.411 21.24 737.158 21.68C737.918 22.1067 738.511 22.7333 738.938 23.56C739.378 24.3867 739.598 25.4 739.598 26.6ZM731.658 26.6C731.658 27.4 731.758 28.0933 731.958 28.68C732.158 29.2533 732.471 29.6933 732.898 30C733.324 30.3067 733.871 30.46 734.538 30.46C735.204 30.46 735.751 30.3067 736.178 30C736.604 29.6933 736.918 29.2533 737.118 28.68C737.318 28.0933 737.418 27.4 737.418 26.6C737.418 25.7733 737.311 25.08 737.098 24.52C736.898 23.96 736.584 23.5333 736.158 23.24C735.744 22.9333 735.198 22.78 734.518 22.78C733.518 22.78 732.791 23.1133 732.338 23.78C731.884 24.4467 731.658 25.3867 731.658 26.6ZM751.36 30.48C751.64 30.48 751.927 30.4533 752.22 30.4C752.514 30.3467 752.767 30.2867 752.98 30.22V31.82C752.754 31.9267 752.447 32.0133 752.06 32.08C751.674 32.16 751.287 32.2 750.9 32.2C750.314 32.2 749.774 32.1 749.28 31.9C748.8 31.7 748.414 31.3533 748.12 30.86C747.827 30.3667 747.68 29.68 747.68 28.8V22.84H746.18V21.88L747.76 21.08L748.5 18.8H749.8V21.22H752.88V22.84H749.8V28.76C749.8 29.3467 749.94 29.78 750.22 30.06C750.514 30.34 750.894 30.48 751.36 30.48ZM757.257 20.86C757.257 21.1933 757.243 21.5267 757.217 21.86C757.19 22.1933 757.163 22.4667 757.137 22.68H757.277C757.503 22.3067 757.783 22 758.117 21.76C758.463 21.52 758.843 21.34 759.257 21.22C759.683 21.1 760.117 21.04 760.557 21.04C761.41 21.04 762.123 21.18 762.697 21.46C763.283 21.7267 763.723 22.1533 764.017 22.74C764.323 23.3133 764.477 24.06 764.477 24.98V32H762.377V25.28C762.377 24.44 762.197 23.8133 761.837 23.4C761.49 22.9733 760.93 22.76 760.157 22.76C759.423 22.76 758.843 22.9067 758.417 23.2C758.003 23.4933 757.703 23.9267 757.517 24.5C757.343 25.06 757.257 25.7533 757.257 26.58V32H755.137V16.8H757.257V20.86ZM771.974 21.02C772.921 21.02 773.734 21.22 774.414 21.62C775.094 22.0067 775.614 22.5667 775.974 23.3C776.348 24.0333 776.534 24.9 776.534 25.9V27.06H769.294C769.321 28.1667 769.608 29.0133 770.154 29.6C770.714 30.1867 771.494 30.48 772.494 30.48C773.188 30.48 773.801 30.42 774.334 30.3C774.881 30.1667 775.441 29.9733 776.014 29.72V31.48C775.481 31.72 774.934 31.9 774.374 32.02C773.828 32.14 773.174 32.2 772.414 32.2C771.374 32.2 770.454 31.9933 769.654 31.58C768.854 31.1667 768.228 30.5533 767.774 29.74C767.334 28.9133 767.114 27.9 767.114 26.7C767.114 25.4867 767.314 24.46 767.714 23.62C768.128 22.78 768.694 22.14 769.414 21.7C770.148 21.2467 771.001 21.02 771.974 21.02ZM771.974 22.66C771.214 22.66 770.601 22.9067 770.134 23.4C769.681 23.8933 769.414 24.5933 769.334 25.5H774.414C774.414 24.94 774.328 24.4467 774.154 24.02C773.981 23.5933 773.714 23.26 773.354 23.02C772.994 22.78 772.534 22.66 771.974 22.66ZM788.255 30.48C788.535 30.48 788.822 30.4533 789.115 30.4C789.408 30.3467 789.662 30.2867 789.875 30.22V31.82C789.648 31.9267 789.342 32.0133 788.955 32.08C788.568 32.16 788.182 32.2 787.795 32.2C787.208 32.2 786.668 32.1 786.175 31.9C785.695 31.7 785.308 31.3533 785.015 30.86C784.722 30.3667 784.575 29.68 784.575 28.8V22.84H783.075V21.88L784.655 21.08L785.395 18.8H786.695V21.22H789.775V22.84H786.695V28.76C786.695 29.3467 786.835 29.78 787.115 30.06C787.408 30.34 787.788 30.48 788.255 30.48ZM801.531 26.6C801.531 27.4933 801.411 28.2867 801.171 28.98C800.931 29.6733 800.591 30.26 800.151 30.74C799.711 31.22 799.178 31.5867 798.551 31.84C797.924 32.08 797.218 32.2 796.431 32.2C795.711 32.2 795.044 32.08 794.431 31.84C793.818 31.5867 793.284 31.22 792.831 30.74C792.391 30.26 792.044 29.6733 791.791 28.98C791.538 28.2867 791.411 27.4867 791.411 26.58C791.411 25.3933 791.611 24.3867 792.011 23.56C792.424 22.7333 793.011 22.1067 793.771 21.68C794.544 21.24 795.451 21.02 796.491 21.02C797.478 21.02 798.344 21.24 799.091 21.68C799.851 22.1067 800.444 22.7333 800.871 23.56C801.311 24.3867 801.531 25.4 801.531 26.6ZM793.591 26.6C793.591 27.4 793.691 28.0933 793.891 28.68C794.091 29.2533 794.404 29.6933 794.831 30C795.258 30.3067 795.804 30.46 796.471 30.46C797.138 30.46 797.684 30.3067 798.111 30C798.538 29.6933 798.851 29.2533 799.051 28.68C799.251 28.0933 799.351 27.4 799.351 26.6C799.351 25.7733 799.244 25.08 799.031 24.52C798.831 23.96 798.518 23.5333 798.091 23.24C797.678 22.9333 797.131 22.78 796.451 22.78C795.451 22.78 794.724 23.1133 794.271 23.78C793.818 24.4467 793.591 25.3867 793.591 26.6ZM809.599 21.02C810.892 21.02 811.932 21.4867 812.719 22.42C813.519 23.3533 813.919 24.7467 813.919 26.6C813.919 27.8133 813.739 28.84 813.379 29.68C813.019 30.52 812.512 31.1533 811.859 31.58C811.205 31.9933 810.445 32.2 809.579 32.2C809.032 32.2 808.552 32.1333 808.139 32C807.725 31.8533 807.372 31.6667 807.079 31.44C806.799 31.2 806.552 30.9467 806.339 30.68H806.199C806.239 30.92 806.272 31.2067 806.299 31.54C806.325 31.86 806.339 32.1467 806.339 32.4V36.8H804.219V21.22H805.939L806.239 22.66H806.339C806.552 22.3667 806.805 22.0933 807.099 21.84C807.392 21.5867 807.745 21.3867 808.159 21.24C808.572 21.0933 809.052 21.02 809.599 21.02ZM809.099 22.76C808.432 22.76 807.899 22.8933 807.499 23.16C807.099 23.4133 806.805 23.8 806.619 24.32C806.445 24.8267 806.352 25.4733 806.339 26.26V26.58C806.339 27.4067 806.425 28.1133 806.599 28.7C806.772 29.2733 807.059 29.7133 807.459 30.02C807.872 30.3133 808.432 30.46 809.139 30.46C809.739 30.46 810.225 30.3 810.599 29.98C810.985 29.6467 811.272 29.1867 811.459 28.6C811.645 28.0133 811.739 27.3333 811.739 26.56C811.739 25.3867 811.525 24.46 811.099 23.78C810.672 23.1 810.005 22.76 809.099 22.76Z" fill="#02477B"/>
<path d="M647 34V16.5" stroke="#02477B" stroke-width="2" stroke-linecap="round" stroke-linejoin="round"/>
<path d="M654 23L647 16L640 23" stroke="#02477B" stroke-width="2" stroke-linecap="round" stroke-linejoin="round"/>
<path d="M838 34V16.5" stroke="#02477B" stroke-width="2" stroke-linecap="round" stroke-linejoin="round"/>
<path d="M845 23L838 16L831 23" stroke="#02477B" stroke-width="2" stroke-linecap="round" stroke-linejoin="round"/>
</svg>
