<svg width="1484" height="80" viewBox="0 0 1484 80" fill="none" xmlns="http://www.w3.org/2000/svg">
<line x1="1.5" y1="66.5" x2="1482.5" y2="66.5" stroke="#02477B" stroke-width="3" stroke-linecap="round"/>
<path d="M654.48 52.48C652.213 52.48 650.213 51.9333 648.48 50.84C646.747 49.72 645.387 48.1467 644.4 46.12C643.44 44.0667 642.96 41.6267 642.96 38.8C642.96 35.9733 643.44 33.56 644.4 31.56C645.387 29.56 646.747 28.0267 648.48 26.96C650.213 25.8933 652.213 25.36 654.48 25.36C656.773 25.36 658.787 25.8933 660.52 26.96C662.253 28.0267 663.6 29.56 664.56 31.56C665.547 33.56 666.04 35.9733 666.04 38.8C666.04 41.6267 665.547 44.0667 664.56 46.12C663.6 48.1467 662.253 49.72 660.52 50.84C658.787 51.9333 656.773 52.48 654.48 52.48ZM654.48 48.44C656.533 48.44 658.173 47.5733 659.4 45.84C660.627 44.08 661.24 41.7333 661.24 38.8C661.24 35.8667 660.627 33.5733 659.4 31.92C658.173 30.24 656.533 29.4 654.48 29.4C652.427 29.4 650.787 30.24 649.56 31.92C648.333 33.5733 647.72 35.8667 647.72 38.8C647.72 41.7333 648.333 44.08 649.56 45.84C650.787 47.5733 652.427 48.44 654.48 48.44ZM676.713 52.48C674.606 52.48 673.073 51.8 672.113 50.44C671.153 49.08 670.673 47.16 670.673 44.68V32.36H675.273V44.08C675.273 45.7067 675.513 46.8533 675.993 47.52C676.473 48.1867 677.246 48.52 678.313 48.52C679.166 48.52 679.913 48.3067 680.553 47.88C681.22 47.4533 681.926 46.76 682.673 45.8V32.36H687.273V52H683.513L683.153 49.12H683.033C682.18 50.1333 681.246 50.9467 680.233 51.56C679.22 52.1733 678.046 52.48 676.713 52.48ZM693.1 52V32.36H696.9L697.22 35.84H697.38C698.073 34.56 698.913 33.5867 699.9 32.92C700.886 32.2267 701.9 31.88 702.94 31.88C703.873 31.88 704.62 32.0133 705.18 32.28L704.38 36.28C704.033 36.1733 703.713 36.0933 703.42 36.04C703.126 35.9867 702.766 35.96 702.34 35.96C701.566 35.96 700.753 36.2667 699.9 36.88C699.046 37.4667 698.313 38.5067 697.7 40V52H693.1ZM721.789 38.08L720.869 41.28H727.549L726.629 38.08C726.203 36.6933 725.789 35.2667 725.389 33.8C725.016 32.3333 724.643 30.88 724.269 29.44H724.109C723.763 30.9067 723.389 32.3733 722.989 33.84C722.616 35.28 722.216 36.6933 721.789 38.08ZM713.029 52L721.549 25.84H726.989L735.509 52H730.629L728.589 44.92H719.789L717.749 52H713.029ZM738.334 52V32.36H742.134L742.454 35.84H742.614C743.307 34.56 744.147 33.5867 745.134 32.92C746.121 32.2267 747.134 31.88 748.174 31.88C749.107 31.88 749.854 32.0133 750.414 32.28L749.614 36.28C749.267 36.1733 748.947 36.0933 748.654 36.04C748.361 35.9867 748.001 35.96 747.574 35.96C746.801 35.96 745.987 36.2667 745.134 36.88C744.281 37.4667 743.547 38.5067 742.934 40V52H738.334ZM760.176 52.48C757.909 52.48 756.296 51.8267 755.336 50.52C754.403 49.1867 753.936 47.4667 753.936 45.36V36H751.136V32.56L754.176 32.36L754.736 27H758.576V32.36H763.576V36H758.576V45.36C758.576 47.6533 759.496 48.8 761.336 48.8C761.683 48.8 762.043 48.76 762.416 48.68C762.789 48.5733 763.109 48.4667 763.376 48.36L764.176 51.76C763.643 51.9467 763.029 52.1067 762.336 52.24C761.669 52.4 760.949 52.48 760.176 52.48ZM767.709 52V32.36H772.309V52H767.709ZM770.029 28.92C769.202 28.92 768.536 28.68 768.029 28.2C767.522 27.72 767.269 27.08 767.269 26.28C767.269 25.5067 767.522 24.88 768.029 24.4C768.536 23.92 769.202 23.68 770.029 23.68C770.856 23.68 771.522 23.92 772.029 24.4C772.536 24.88 772.789 25.5067 772.789 26.28C772.789 27.08 772.536 27.72 772.029 28.2C771.522 28.68 770.856 28.92 770.029 28.92ZM786.378 52.48C784.591 52.48 782.978 52.08 781.538 51.28C780.124 50.4533 778.991 49.28 778.138 47.76C777.311 46.2133 776.898 44.36 776.898 42.2C776.898 40.0133 777.351 38.16 778.258 36.64C779.164 35.0933 780.364 33.92 781.858 33.12C783.378 32.2933 785.004 31.88 786.738 31.88C787.991 31.88 789.084 32.0933 790.018 32.52C790.951 32.9467 791.778 33.4667 792.498 34.08L790.258 37.08C789.751 36.6267 789.231 36.28 788.698 36.04C788.164 35.7733 787.591 35.64 786.978 35.64C785.404 35.64 784.111 36.24 783.098 37.44C782.111 38.64 781.618 40.2267 781.618 42.2C781.618 44.1467 782.098 45.72 783.058 46.92C784.044 48.12 785.311 48.72 786.858 48.72C787.631 48.72 788.351 48.56 789.018 48.24C789.711 47.8933 790.338 47.4933 790.898 47.04L792.778 50.08C791.871 50.88 790.858 51.48 789.738 51.88C788.618 52.28 787.498 52.48 786.378 52.48ZM801.134 52.48C799.508 52.48 798.348 51.9867 797.654 51C796.988 50.0133 796.654 48.6667 796.654 46.96V23.76H801.254V47.2C801.254 47.76 801.361 48.16 801.574 48.4C801.788 48.6133 802.014 48.72 802.254 48.72C802.361 48.72 802.454 48.72 802.534 48.72C802.641 48.6933 802.788 48.6667 802.974 48.64L803.574 52.08C803.308 52.1867 802.961 52.28 802.534 52.36C802.134 52.44 801.668 52.48 801.134 52.48ZM815.914 52.48C814.1 52.48 812.46 52.08 810.994 51.28C809.527 50.4533 808.367 49.28 807.514 47.76C806.66 46.2133 806.234 44.36 806.234 42.2C806.234 40.0667 806.66 38.2267 807.514 36.68C808.394 35.1333 809.527 33.9467 810.914 33.12C812.3 32.2933 813.754 31.88 815.274 31.88C817.06 31.88 818.554 32.28 819.754 33.08C820.954 33.8533 821.86 34.9467 822.474 36.36C823.087 37.7467 823.394 39.36 823.394 41.2C823.394 42.16 823.327 42.9067 823.194 43.44H810.714C810.927 45.1733 811.554 46.52 812.594 47.48C813.634 48.44 814.94 48.92 816.514 48.92C817.367 48.92 818.154 48.8 818.874 48.56C819.62 48.2933 820.354 47.9333 821.074 47.48L822.634 50.36C821.7 50.9733 820.66 51.48 819.514 51.88C818.367 52.28 817.167 52.48 815.914 52.48ZM810.674 40.32H819.394C819.394 38.8 819.06 37.6133 818.394 36.76C817.727 35.88 816.727 35.44 815.394 35.44C814.247 35.44 813.22 35.8667 812.314 36.72C811.434 37.5467 810.887 38.7467 810.674 40.32ZM833.267 52.48C831.934 52.48 830.601 52.2267 829.267 51.72C827.934 51.1867 826.787 50.5333 825.827 49.76L827.987 46.8C828.867 47.4667 829.747 48 830.627 48.4C831.507 48.8 832.441 49 833.427 49C834.494 49 835.281 48.7733 835.787 48.32C836.294 47.8667 836.547 47.3067 836.547 46.64C836.547 46.08 836.334 45.6267 835.907 45.28C835.507 44.9067 834.987 44.5867 834.347 44.32C833.707 44.0267 833.041 43.7467 832.347 43.48C831.494 43.16 830.641 42.7733 829.787 42.32C828.961 41.84 828.281 41.24 827.747 40.52C827.214 39.7733 826.947 38.8533 826.947 37.76C826.947 36.0267 827.587 34.6133 828.867 33.52C830.147 32.4267 831.881 31.88 834.067 31.88C835.454 31.88 836.694 32.12 837.787 32.6C838.881 33.08 839.827 33.6267 840.627 34.24L838.507 37.04C837.814 36.5333 837.107 36.1333 836.387 35.84C835.694 35.52 834.961 35.36 834.187 35.36C833.201 35.36 832.467 35.5733 831.987 36C831.507 36.4 831.267 36.9067 831.267 37.52C831.267 38.2933 831.667 38.88 832.467 39.28C833.267 39.68 834.201 40.0667 835.267 40.44C836.174 40.76 837.054 41.16 837.907 41.64C838.761 42.0933 839.467 42.6933 840.027 43.44C840.614 44.1867 840.907 45.1733 840.907 46.4C840.907 48.08 840.254 49.52 838.947 50.72C837.641 51.8933 835.747 52.48 833.267 52.48Z" fill="#02477B"/>
</svg>
