<svg width="1484" height="80" viewBox="0 0 1484 80" fill="none" xmlns="http://www.w3.org/2000/svg">
<path d="M118.288 45.98C118.288 47.492 117.916 48.8 117.172 49.904C116.428 51.008 115.348 51.86 113.932 52.46C112.54 53.06 110.872 53.36 108.928 53.36C107.992 53.36 107.092 53.3 106.228 53.18C105.388 53.084 104.584 52.928 103.816 52.712C103.072 52.496 102.376 52.232 101.728 51.92V47.6C102.808 48.08 103.996 48.524 105.292 48.932C106.588 49.316 107.908 49.508 109.252 49.508C110.284 49.508 111.124 49.376 111.772 49.112C112.444 48.824 112.936 48.44 113.248 47.96C113.56 47.456 113.716 46.88 113.716 46.232C113.716 45.512 113.512 44.9 113.104 44.396C112.696 43.892 112.096 43.424 111.304 42.992C110.512 42.56 109.528 42.104 108.352 41.624C107.56 41.288 106.78 40.916 106.012 40.508C105.268 40.076 104.596 39.56 103.996 38.96C103.396 38.36 102.916 37.652 102.556 36.836C102.196 36.02 102.016 35.06 102.016 33.956C102.016 32.492 102.364 31.232 103.06 30.176C103.78 29.12 104.776 28.316 106.048 27.764C107.344 27.212 108.844 26.936 110.548 26.936C111.916 26.936 113.2 27.08 114.4 27.368C115.6 27.656 116.788 28.064 117.964 28.592L116.488 32.3C115.432 31.844 114.412 31.484 113.428 31.22C112.444 30.956 111.436 30.824 110.404 30.824C109.588 30.824 108.892 30.956 108.316 31.22C107.74 31.46 107.308 31.808 107.02 32.264C106.732 32.72 106.588 33.248 106.588 33.848C106.588 34.544 106.768 35.132 107.128 35.612C107.488 36.092 108.04 36.548 108.784 36.98C109.552 37.388 110.536 37.856 111.736 38.384C113.128 38.984 114.304 39.608 115.264 40.256C116.224 40.904 116.968 41.684 117.496 42.596C118.024 43.508 118.288 44.636 118.288 45.98ZM140.133 43.208C140.133 44.84 139.917 46.28 139.485 47.528C139.053 48.776 138.429 49.844 137.613 50.732C136.821 51.596 135.837 52.256 134.661 52.712C133.509 53.144 132.225 53.36 130.809 53.36C129.465 53.36 128.229 53.144 127.101 52.712C125.973 52.256 124.989 51.596 124.149 50.732C123.333 49.844 122.697 48.776 122.241 47.528C121.785 46.28 121.557 44.84 121.557 43.208C121.557 41.048 121.929 39.224 122.673 37.736C123.417 36.224 124.485 35.084 125.877 34.316C127.293 33.524 128.961 33.128 130.881 33.128C132.705 33.128 134.301 33.524 135.669 34.316C137.061 35.084 138.153 36.224 138.945 37.736C139.737 39.224 140.133 41.048 140.133 43.208ZM126.201 43.208C126.201 44.576 126.357 45.752 126.669 46.736C127.005 47.696 127.509 48.428 128.181 48.932C128.877 49.436 129.765 49.688 130.845 49.688C131.949 49.688 132.837 49.436 133.509 48.932C134.205 48.428 134.709 47.696 135.021 46.736C135.333 45.752 135.489 44.576 135.489 43.208C135.489 41.816 135.321 40.652 134.985 39.716C134.673 38.756 134.169 38.036 133.473 37.556C132.801 37.052 131.925 36.8 130.845 36.8C129.213 36.8 128.025 37.352 127.281 38.456C126.561 39.56 126.201 41.144 126.201 43.208ZM167.178 33.128C169.386 33.128 171.042 33.692 172.146 34.82C173.274 35.948 173.838 37.772 173.838 40.292V53H169.302V41.156C169.302 39.716 169.038 38.636 168.51 37.916C167.982 37.172 167.142 36.8 165.99 36.8C164.406 36.8 163.278 37.316 162.606 38.348C161.934 39.38 161.598 40.88 161.598 42.848V53H157.062V41.156C157.062 40.196 156.942 39.392 156.702 38.744C156.462 38.096 156.09 37.616 155.586 37.304C155.106 36.968 154.482 36.8 153.714 36.8C152.634 36.8 151.77 37.064 151.122 37.592C150.474 38.096 150.018 38.84 149.754 39.824C149.49 40.808 149.358 42.02 149.358 43.46V53H144.822V33.488H148.314L148.962 36.044H149.214C149.622 35.372 150.114 34.82 150.69 34.388C151.29 33.956 151.95 33.644 152.67 33.452C153.414 33.236 154.158 33.128 154.902 33.128C156.366 33.128 157.602 33.38 158.61 33.884C159.618 34.364 160.374 35.12 160.878 36.152H161.238C161.838 35.096 162.678 34.328 163.758 33.848C164.862 33.368 166.002 33.128 167.178 33.128ZM187.369 33.128C189.121 33.128 190.621 33.488 191.869 34.208C193.141 34.904 194.125 35.912 194.821 37.232C195.517 38.528 195.865 40.112 195.865 41.984V44.288H182.977C183.025 46.064 183.517 47.444 184.453 48.428C185.389 49.388 186.685 49.868 188.341 49.868C189.613 49.868 190.741 49.748 191.725 49.508C192.733 49.244 193.765 48.872 194.821 48.392V52.028C193.861 52.484 192.865 52.82 191.833 53.036C190.801 53.252 189.565 53.36 188.125 53.36C186.229 53.36 184.537 53 183.049 52.28C181.585 51.536 180.433 50.42 179.593 48.932C178.777 47.444 178.369 45.596 178.369 43.388C178.369 41.156 178.741 39.284 179.485 37.772C180.253 36.236 181.309 35.084 182.653 34.316C183.997 33.524 185.569 33.128 187.369 33.128ZM187.369 36.476C186.169 36.476 185.185 36.872 184.417 37.664C183.673 38.432 183.229 39.584 183.085 41.12H191.473C191.473 40.208 191.317 39.404 191.005 38.708C190.717 38.012 190.273 37.472 189.673 37.088C189.073 36.68 188.305 36.476 187.369 36.476ZM230.167 53H224.875L217.243 41.624L214.831 43.532V53H210.223V27.296H214.831V39.392C215.311 38.792 215.803 38.18 216.307 37.556C216.811 36.932 217.315 36.308 217.819 35.684L224.767 27.296H229.987L220.555 38.6L230.167 53ZM240.948 33.128C242.7 33.128 244.2 33.488 245.448 34.208C246.72 34.904 247.704 35.912 248.4 37.232C249.096 38.528 249.444 40.112 249.444 41.984V44.288H236.556C236.604 46.064 237.096 47.444 238.032 48.428C238.968 49.388 240.264 49.868 241.92 49.868C243.192 49.868 244.32 49.748 245.304 49.508C246.312 49.244 247.344 48.872 248.4 48.392V52.028C247.44 52.484 246.444 52.82 245.412 53.036C244.38 53.252 243.144 53.36 241.704 53.36C239.808 53.36 238.116 53 236.628 52.28C235.164 51.536 234.012 50.42 233.172 48.932C232.356 47.444 231.948 45.596 231.948 43.388C231.948 41.156 232.32 39.284 233.064 37.772C233.832 36.236 234.888 35.084 236.232 34.316C237.576 33.524 239.148 33.128 240.948 33.128ZM240.948 36.476C239.748 36.476 238.764 36.872 237.996 37.664C237.252 38.432 236.808 39.584 236.664 41.12H245.052C245.052 40.208 244.896 39.404 244.584 38.708C244.296 38.012 243.852 37.472 243.252 37.088C242.652 36.68 241.884 36.476 240.948 36.476ZM250.398 33.488H255.33L259.218 44.504C259.386 44.984 259.53 45.452 259.65 45.908C259.794 46.34 259.914 46.784 260.01 47.24C260.106 47.696 260.178 48.152 260.226 48.608H260.37C260.466 48.008 260.61 47.348 260.802 46.628C261.018 45.908 261.234 45.2 261.45 44.504L265.194 33.488H270.09L261.774 55.592C261.294 56.864 260.682 57.956 259.938 58.868C259.218 59.78 258.354 60.464 257.346 60.92C256.362 61.4 255.246 61.64 253.998 61.64C253.422 61.64 252.906 61.604 252.45 61.532C252.018 61.484 251.634 61.424 251.298 61.352V57.752C251.562 57.8 251.874 57.848 252.234 57.896C252.618 57.944 253.014 57.968 253.422 57.968C254.166 57.968 254.802 57.812 255.33 57.5C255.882 57.212 256.338 56.804 256.698 56.276C257.082 55.748 257.394 55.16 257.634 54.512L258.21 52.928L250.398 33.488ZM287.322 53H282.786V27.296H297.366V31.148H287.322V38.708H296.682V42.56H287.322V53ZM309.501 33.128C312.021 33.128 313.929 33.68 315.225 34.784C316.545 35.864 317.205 37.568 317.205 39.896V53H314.001L313.101 50.3H312.957C312.405 50.996 311.829 51.584 311.229 52.064C310.653 52.52 309.981 52.844 309.213 53.036C308.469 53.252 307.557 53.36 306.477 53.36C305.325 53.36 304.281 53.144 303.345 52.712C302.433 52.28 301.713 51.62 301.185 50.732C300.657 49.82 300.393 48.68 300.393 47.312C300.393 45.296 301.125 43.784 302.589 42.776C304.077 41.744 306.321 41.18 309.321 41.084L312.705 40.976V40.004C312.705 38.756 312.405 37.868 311.805 37.34C311.205 36.812 310.365 36.548 309.285 36.548C308.301 36.548 307.353 36.692 306.441 36.98C305.529 37.268 304.641 37.604 303.777 37.988L302.337 34.82C303.297 34.316 304.389 33.908 305.613 33.596C306.861 33.284 308.157 33.128 309.501 33.128ZM310.329 43.856C308.337 43.928 306.957 44.276 306.189 44.9C305.421 45.5 305.037 46.316 305.037 47.348C305.037 48.26 305.313 48.92 305.865 49.328C306.417 49.736 307.125 49.94 307.989 49.94C309.309 49.94 310.425 49.568 311.337 48.824C312.249 48.056 312.705 46.928 312.705 45.44V43.784L310.329 43.856ZM330.773 53.36C328.925 53.36 327.317 53.012 325.949 52.316C324.605 51.596 323.561 50.504 322.817 49.04C322.097 47.552 321.737 45.656 321.737 43.352C321.737 40.952 322.133 39.008 322.925 37.52C323.741 36.008 324.857 34.904 326.273 34.208C327.689 33.488 329.309 33.128 331.133 33.128C332.357 33.128 333.449 33.248 334.409 33.488C335.369 33.728 336.185 34.016 336.857 34.352L335.525 37.916C334.781 37.628 334.037 37.388 333.293 37.196C332.549 36.98 331.829 36.872 331.133 36.872C330.053 36.872 329.153 37.112 328.433 37.592C327.737 38.072 327.221 38.792 326.885 39.752C326.549 40.688 326.381 41.876 326.381 43.316C326.381 44.708 326.549 45.872 326.885 46.808C327.245 47.744 327.773 48.452 328.469 48.932C329.165 49.388 330.029 49.616 331.061 49.616C332.165 49.616 333.137 49.484 333.977 49.22C334.817 48.956 335.609 48.596 336.353 48.14V52.064C335.609 52.52 334.805 52.844 333.941 53.036C333.101 53.252 332.045 53.36 330.773 53.36ZM348.484 49.724C349.06 49.724 349.612 49.676 350.14 49.58C350.668 49.46 351.16 49.328 351.616 49.184V52.568C351.136 52.784 350.512 52.964 349.744 53.108C348.976 53.276 348.172 53.36 347.332 53.36C346.228 53.36 345.22 53.18 344.308 52.82C343.42 52.436 342.7 51.788 342.148 50.876C341.62 49.964 341.356 48.692 341.356 47.06V36.908H338.728V34.928L341.608 33.344L343.048 29.204H345.892V33.488H351.436V36.908H345.892V47.024C345.892 47.936 346.132 48.62 346.612 49.076C347.092 49.508 347.716 49.724 348.484 49.724ZM368.833 47.348C368.833 48.644 368.521 49.748 367.897 50.66C367.273 51.548 366.349 52.22 365.125 52.676C363.925 53.132 362.449 53.36 360.697 53.36C359.329 53.36 358.153 53.264 357.169 53.072C356.185 52.88 355.249 52.58 354.361 52.172V48.32C355.321 48.776 356.389 49.16 357.565 49.472C358.741 49.784 359.833 49.94 360.841 49.94C362.089 49.94 362.989 49.748 363.541 49.364C364.093 48.98 364.369 48.464 364.369 47.816C364.369 47.432 364.261 47.084 364.045 46.772C363.829 46.46 363.409 46.136 362.785 45.8C362.161 45.44 361.213 44.996 359.941 44.468C358.693 43.964 357.649 43.46 356.809 42.956C355.993 42.452 355.369 41.852 354.937 41.156C354.529 40.436 354.325 39.536 354.325 38.456C354.325 36.704 355.021 35.384 356.413 34.496C357.805 33.584 359.641 33.128 361.921 33.128C363.121 33.128 364.249 33.248 365.305 33.488C366.385 33.704 367.465 34.064 368.545 34.568L367.105 37.916C366.505 37.652 365.905 37.424 365.305 37.232C364.729 37.016 364.141 36.848 363.541 36.728C362.965 36.608 362.377 36.548 361.777 36.548C360.793 36.548 360.049 36.704 359.545 37.016C359.041 37.304 358.789 37.712 358.789 38.24C358.789 38.648 358.909 39.008 359.149 39.32C359.413 39.608 359.857 39.908 360.481 40.22C361.129 40.508 362.041 40.892 363.217 41.372C364.393 41.828 365.389 42.308 366.205 42.812C367.045 43.292 367.693 43.892 368.149 44.612C368.605 45.332 368.833 46.244 368.833 47.348Z" fill="white"/>
<path d="M59.25 17.25C59.25 16.388 58.9076 15.5614 58.2981 14.9519C57.6886 14.3424 56.862 14 56 14C55.138 14 54.3114 14.3424 53.7019 14.9519C53.0924 15.5614 52.75 16.388 52.75 17.25V20.5C52.75 21.362 53.0924 22.1886 53.7019 22.7981C54.3114 23.4076 55.138 23.75 56 23.75C56.862 23.75 57.6886 23.4076 58.2981 22.7981C58.9076 22.1886 59.25 21.362 59.25 20.5V17.25ZM74.3853 26.2102C74.9773 25.5973 75.3048 24.7763 75.2974 23.9242C75.29 23.0721 74.9482 22.2569 74.3457 21.6543C73.7431 21.0518 72.9279 20.71 72.0758 20.7026C71.2237 20.6952 70.4027 21.0227 69.7897 21.6147L67.492 23.9125C66.9 24.5255 66.5724 25.3464 66.5798 26.1986C66.5872 27.0507 66.929 27.8658 67.5316 28.4684C68.1342 29.071 68.9493 29.4128 69.8014 29.4202C70.6536 29.4276 71.4745 29.1 72.0875 28.508L74.3853 26.2102ZM82 40C82 40.862 81.6576 41.6886 81.0481 42.2981C80.4386 42.9076 79.612 43.25 78.75 43.25H75.5C74.638 43.25 73.8114 42.9076 73.2019 42.2981C72.5924 41.6886 72.25 40.862 72.25 40C72.25 39.138 72.5924 38.3114 73.2019 37.7019C73.8114 37.0924 74.638 36.75 75.5 36.75H78.75C79.612 36.75 80.4386 37.0924 81.0481 37.7019C81.6576 38.3114 82 39.138 82 40ZM39.9125 28.508C40.2123 28.8184 40.5709 29.066 40.9674 29.2363C41.3639 29.4067 41.7904 29.4963 42.2219 29.5001C42.6535 29.5038 43.0814 29.4216 43.4809 29.2582C43.8803 29.0948 44.2431 28.8534 44.5483 28.5483C44.8534 28.2431 45.0948 27.8803 45.2582 27.4809C45.4216 27.0814 45.5038 26.6535 45.5001 26.2219C45.4963 25.7904 45.4067 25.3639 45.2363 24.9674C45.066 24.5709 44.8184 24.2123 44.508 23.9125L42.2102 21.6147C41.5973 21.0227 40.7763 20.6952 39.9242 20.7026C39.0721 20.71 38.2569 21.0518 37.6543 21.6543C37.0518 22.2569 36.71 23.0721 36.7026 23.9242C36.6952 24.7763 37.0227 25.5973 37.6147 26.2102L39.9125 28.508ZM39.75 40C39.75 40.862 39.4076 41.6886 38.7981 42.2981C38.1886 42.9076 37.362 43.25 36.5 43.25H33.25C32.388 43.25 31.5614 42.9076 30.9519 42.2981C30.3424 41.6886 30 40.862 30 40C30 39.138 30.3424 38.3114 30.9519 37.7019C31.5614 37.0924 32.388 36.75 33.25 36.75H36.5C37.362 36.75 38.1886 37.0924 38.7981 37.7019C39.4076 38.3114 39.75 39.138 39.75 40ZM49.5 59.5V56.25H62.5V59.5C62.5 61.2239 61.8152 62.8772 60.5962 64.0962C59.3772 65.3152 57.7239 66 56 66C54.2761 66 52.6228 65.3152 51.4038 64.0962C50.1848 62.8772 49.5 61.2239 49.5 59.5ZM62.5 53C62.5488 51.895 63.176 50.9005 64.0503 50.2082C66.1715 48.5353 67.7188 46.2431 68.4772 43.6503C69.2356 41.0574 69.1674 38.2926 68.2821 35.7403C67.3967 33.188 65.7382 30.9749 63.5371 29.4086C61.3359 27.8424 58.7015 27.0007 56 27.0007C53.2985 27.0007 50.6641 27.8424 48.4629 29.4086C46.2618 30.9749 44.6033 33.188 43.7179 35.7403C42.8326 38.2926 42.7644 41.0574 43.5228 43.6503C44.2812 46.2431 45.8285 48.5353 47.9497 50.2082C48.8272 50.9005 49.4513 51.895 49.4967 53H62.5Z" fill="white"/>
</svg>
